<?xml version="1.0" encoding="UTF-8" standalone="no"?>
<!DOCTYPE svg PUBLIC "-//W3C//DTD SVG 1.1//EN" "http://www.w3.org/Graphics/SVG/1.1/DTD/svg11.dtd">
<svg width="100%" height="100%" viewBox="0 0 1241 1749" version="1.1" xmlns="http://www.w3.org/2000/svg" xmlns:xlink="http://www.w3.org/1999/xlink" xml:space="preserve" xmlns:serif="http://www.serif.com/" style="fill-rule:evenodd;clip-rule:evenodd;stroke-linecap:round;stroke-linejoin:round;stroke-miterlimit:1.5;">
    <g id="fork" transform="matrix(1,0,0,1,3,0)">
        <g transform="matrix(1,0,0,1,9,0)">
            <path d="M66.469,638.782C66.469,723.958 56.568,788.274 108.679,797.21C108.679,797.21 101.469,1008.45 101.469,1077.42C101.469,1105.19 147.302,1107.33 147.302,1077.18C147.302,1006.68 141.271,797.769 141.271,797.769C191.774,782.722 184.51,727.617 184.51,638.041" style="fill:none;stroke:rgb(19,78,74);stroke-width:12.5px;"/>
        </g>
        <g transform="matrix(1,0,0,1,22.3601,0)">
            <path d="M90.43,637.128L90.43,728.781" style="fill:none;stroke:rgb(19,78,74);stroke-width:12.5px;"/>
        </g>
        <g transform="matrix(1,0,0,1,62.9533,0)">
            <path d="M90.43,637.128L90.43,728.781" style="fill:none;stroke:rgb(19,78,74);stroke-width:12.5px;"/>
        </g>
    </g>
    <g id="knife" transform="matrix(1,0,0,1,12.4776,3)">
        <path d="M1087.19,643.462C1092.53,629.426 1110.51,631.244 1110.45,644.682C1110.09,725.21 1110.48,1001.78 1109.92,1072.5C1109.68,1104.2 1063.51,1101.73 1064,1075.33C1064.97,1022 1068.12,911.601 1068.12,911.601L1030.28,905.493C1031.1,811.715 1070.18,688.163 1087.19,643.462Z" style="fill:none;stroke:rgb(19,78,74);stroke-width:12.5px;"/>
    </g>
</svg>
